<svg xmlns="http://www.w3.org/2000/svg" viewBox="0 0 200 200">
  <!-- 渐变定义 -->
  <defs>
    <linearGradient id="bgGradient" x1="0%" y1="0%" x2="100%" y2="100%">
      <stop offset="0%" stop-color="#3949ab" />
      <stop offset="50%" stop-color="#5c6bc0" />
      <stop offset="100%" stop-color="#7986cb" />
    </linearGradient>
    
    <linearGradient id="accentGradient" x1="0%" y1="0%" x2="100%" y2="100%">
      <stop offset="0%" stop-color="#ffa726" />
      <stop offset="100%" stop-color="#ffcc80" />
    </linearGradient>
    
    <filter id="shadow" x="-20%" y="-20%" width="140%" height="140%">
      <feGaussianBlur in="SourceAlpha" stdDeviation="2" />
      <feOffset dx="0" dy="2" result="offsetblur" />
      <feComponentTransfer>
        <feFuncA type="linear" slope="0.4" />
      </feComponentTransfer>
      <feMerge>
        <feMergeNode />
        <feMergeNode in="SourceGraphic" />
      </feMerge>
    </filter>
    
    <clipPath id="clipCircle">
      <circle cx="100" cy="100" r="90" />
    </clipPath>
  </defs>
  
  <!-- 主背景 -->
  <circle cx="100" cy="100" r="90" fill="url(#bgGradient)" filter="url(#shadow)" />
  
  <!-- 数字化教育符号 -->
  <g clip-path="url(#clipCircle)">
    <!-- 抽象书本形状 -->
    <path d="M50,60 C50,50 70,40 100,40 C130,40 150,50 150,60 L150,140 C150,150 130,160 100,160 C70,160 50,150 50,140 Z" 
          fill="#ffffff" opacity="0.95" filter="url(#shadow)" />
    
    <!-- 书页分隔线 -->
    <path d="M100,40 L100,160" stroke="#e0e0e0" stroke-width="1" />
    
    <!-- 数字化元素 - 抽象电路板图案 -->
    <g stroke="#3949ab" stroke-width="2" stroke-linecap="round">
      <path d="M60,80 L90,80 L90,100 L140,100" fill="none" />
      <path d="M60,120 L80,120 L80,140 L120,140" fill="none" />
      <path d="M120,60 L120,80 L140,80" fill="none" />
      
      <!-- 连接点 -->
      <circle cx="90" cy="80" r="3" fill="#3949ab" />
      <circle cx="90" cy="100" r="3" fill="#3949ab" />
      <circle cx="80" cy="120" r="3" fill="#3949ab" />
      <circle cx="80" cy="140" r="3" fill="#3949ab" />
      <circle cx="120" cy="80" r="3" fill="#3949ab" />
      <circle cx="140" cy="100" r="3" fill="#3949ab" />
      <circle cx="140" cy="80" r="3" fill="#3949ab" />
      <circle cx="120" cy="140" r="3" fill="#3949ab" />
    </g>
    
    <!-- 抽象笔形状 -->
    <g filter="url(#shadow)">
      <path d="M130,50 L145,35 L165,55 L150,70 Z" fill="url(#accentGradient)" />
      <path d="M150,70 L110,110" stroke="url(#accentGradient)" stroke-width="6" stroke-linecap="round" />
      <circle cx="110" cy="110" r="6" fill="url(#accentGradient)" />
    </g>
  </g>
  
  <!-- 装饰元素 -->
  <g opacity="0.7">
    <circle cx="30" cy="50" r="4" fill="#ffffff" />
    <circle cx="170" cy="50" r="2" fill="#ffffff" />
    <circle cx="160" cy="170" r="3" fill="#ffffff" />
    <circle cx="40" cy="160" r="2" fill="#ffffff" />
  </g>
  
  <!-- 边框 -->
  <circle cx="100" cy="100" r="90" fill="none" stroke="#ffffff" stroke-width="2" opacity="0.2" />
</svg>
